<svg width="24" height="25" viewBox="0 0 24 25" fill="none" xmlns="http://www.w3.org/2000/svg">
<path d="M20.84 4.80209C20.3292 4.26981 19.7228 3.84756 19.0554 3.55947C18.3879 3.27139 17.6725 3.12311 16.95 3.12311C16.2275 3.12311 15.5121 3.27139 14.8446 3.55947C14.1772 3.84756 13.5708 4.26981 13.06 4.80209L12 5.90626L10.94 4.80209C9.9083 3.72741 8.50903 3.12366 7.05 3.12366C5.59096 3.12366 4.19169 3.72741 3.16 4.80209C2.1283 5.87677 1.54871 7.33435 1.54871 8.85418C1.54871 10.374 2.1283 11.8316 3.16 12.9063L12 22.1146L20.84 12.9063C21.351 12.3742 21.7563 11.7425 22.0329 11.0473C22.3095 10.352 22.4518 9.60677 22.4518 8.85418C22.4518 8.10158 22.3095 7.35637 22.0329 6.6611C21.7563 5.96583 21.351 5.33413 20.84 4.80209Z" stroke="white" stroke-width="2" stroke-linecap="round" stroke-linejoin="round"/>
</svg>
